<svg width="16" height="16" viewBox="0 0 16 16" fill="none" xmlns="http://www.w3.org/2000/svg">
<path d="M15.2929 13.0369C15.6834 13.4274 15.6834 14.0606 15.2929 14.4511L14.4511 15.2929C14.0606 15.6834 13.4274 15.6834 13.0369 15.2929L8 10.256L2.96311 15.2929C2.57258 15.6834 1.93942 15.6834 1.54889 15.2929L0.707106 14.4511C0.316582 14.0606 0.316582 13.4274 0.707107 13.0369L5.744 8L0.707107 2.96311C0.316582 2.57258 0.316582 1.93942 0.707107 1.54889L1.54889 0.707106C1.93942 0.316582 2.57258 0.316582 2.96311 0.707107L8 5.744L13.0369 0.707107C13.4274 0.316582 14.0606 0.316582 14.4511 0.707107L15.2929 1.54889C15.6834 1.93942 15.6834 2.57258 15.2929 2.96311L10.256 8L15.2929 13.0369Z" fill="white"/>
</svg>
